<svg xmlns="http://www.w3.org/2000/svg" fill="none" viewBox="0 0 120 24" height="20" width="100">
    <g>
        <path fill="#6b7280" d="M79.7723 0.0100403H100.674V3.85822H92.3826V24.103H88.2365V3.85822H79.7723V0.0100403Z"></path>
        <path fill="#6b7280" d="M45.3965 0.0100403V3.85822H28.6422V10.0488H42.116V13.8969H28.6422V20.2548H45.3965V24.103H24.4964V3.85822H24.4947V0.0100403H45.3965Z"></path>
        <path fill="#6b7280" d="M55.8335 0.0200958H50.4079L69.8412 24.113H75.2826L65.5648 12.0749L75.2671 0.0384772L69.8412 0.0468408L62.8483 8.70978L55.8335 0.0200958Z"></path>
        <path fill="#6b7280" d="M61.401 17.2298L58.684 13.8601L50.3924 24.1314H55.8335L61.401 17.2298Z"></path>
        <path fill="#6b7280" d="M24.6417 24.103L5.18226 0H0V24.0929H4.14582V5.14985L19.4335 24.103H24.6417Z"></path>
        <path fill="#6b7280" d="M101.606 23.9558C101.303 23.9558 101.044 23.8509 100.828 23.6411C100.612 23.4313 100.505 23.1772 100.508 22.8763C100.505 22.5836 100.612 22.3323 100.828 22.1225C101.044 21.9127 101.303 21.8077 101.606 21.8077C101.898 21.8077 102.154 21.9127 102.37 22.1225C102.589 22.3323 102.699 22.5836 102.702 22.8763C102.699 23.0751 102.648 23.2573 102.547 23.4202C102.443 23.5859 102.311 23.7156 102.145 23.8095C101.982 23.9062 101.803 23.9558 101.606 23.9558Z"></path>
        <path fill="#6b7280" d="M108.682 13.8062H110.519V20.8662C110.517 21.5151 110.376 22.07 110.101 22.5367C109.823 23.0033 109.438 23.3594 108.944 23.6107C108.452 23.8592 107.876 23.9862 107.222 23.9862C106.623 23.9862 106.087 23.8785 105.609 23.6687C105.132 23.4588 104.752 23.1441 104.474 22.7299C104.193 22.3157 104.056 21.7994 104.056 21.181H105.896C105.898 21.4516 105.96 21.6862 106.078 21.8823C106.196 22.0783 106.359 22.2274 106.567 22.3323C106.777 22.4372 107.019 22.4897 107.292 22.4897C107.587 22.4897 107.84 22.4289 108.044 22.3047C108.249 22.1832 108.407 22.001 108.517 21.758C108.623 21.5178 108.68 21.2196 108.682 20.8662V13.8062Z"></path>
        <path fill="#6b7280" d="M118.078 16.5672C118.034 16.1393 117.837 15.8052 117.494 15.5677C117.149 15.3275 116.702 15.2088 116.154 15.2088C115.77 15.2088 115.438 15.2668 115.163 15.38C114.888 15.4959 114.674 15.6505 114.528 15.8466C114.382 16.0426 114.309 16.2663 114.303 16.5176C114.303 16.7274 114.354 16.9096 114.452 17.0615C114.55 17.2161 114.682 17.3459 114.854 17.4508C115.022 17.5585 115.21 17.6468 115.416 17.7186C115.623 17.7904 115.831 17.8511 116.039 17.9008L116.997 18.1355C117.382 18.2239 117.756 18.3426 118.112 18.4945C118.469 18.6436 118.792 18.8341 119.076 19.0632C119.359 19.2924 119.584 19.5685 119.75 19.8916C119.916 20.2146 120 20.5928 120 21.0291C120 21.6172 119.848 22.1335 119.542 22.5808C119.236 23.0253 118.795 23.3732 118.216 23.6245C117.64 23.873 116.944 24 116.123 24C115.331 24 114.64 23.8785 114.059 23.6356C113.475 23.3953 113.019 23.0419 112.691 22.578C112.362 22.1142 112.185 21.5482 112.16 20.8828H113.98C114.005 21.2306 114.118 21.5206 114.309 21.7553C114.503 21.9872 114.755 22.1584 115.064 22.2743C115.376 22.3875 115.724 22.4455 116.109 22.4455C116.511 22.4455 116.865 22.3848 117.171 22.266C117.475 22.1473 117.713 21.9817 117.885 21.7663C118.059 21.5537 118.146 21.3025 118.149 21.0153C118.146 20.753 118.067 20.5349 117.916 20.3637C117.761 20.1925 117.548 20.0489 117.275 19.933C117 19.817 116.68 19.7121 116.314 19.621L115.152 19.3283C114.312 19.1157 113.646 18.7927 113.16 18.3592C112.671 17.9257 112.429 17.3514 112.429 16.6308C112.429 16.0399 112.592 15.5208 112.921 15.0763C113.247 14.6318 113.694 14.2866 114.258 14.0409C114.826 13.7924 115.466 13.6709 116.179 13.6709C116.904 13.6709 117.539 13.7924 118.087 14.0409C118.635 14.2866 119.065 14.629 119.376 15.0652C119.688 15.5015 119.851 16.0012 119.86 16.5672H118.078Z"></path>
    </g>
    <defs>
        <clipPath id="clip0_7207_105609">
        <rect fill="white" height="24" width="120"></rect>
        </clipPath>
    </defs>
    </svg>