<svg xmlns="http://www.w3.org/2000/svg" fill="none" viewBox="0 0 400 400" height="400" width="400">
<rect fill="white" height="400" width="400"></rect>
<path fill="#FA412C" d="M267.689 161.133C268.879 161.133 269.844 162.098 269.844 163.288C269.844 164.478 268.879 165.443 267.689 165.443H251.142V190.514H260.33V170.002C260.33 168.812 261.295 167.847 262.485 167.847C263.675 167.847 264.64 168.812 264.64 170.002V192.669C264.64 193.859 263.675 194.824 262.485 194.824H248.987C247.797 194.824 246.832 193.859 246.832 192.669V163.288C246.832 162.098 247.797 161.133 248.987 161.133H267.689ZM236.508 205.587L241.294 216.666C243.185 220.358 240.574 219.727 240.574 219.727C240.574 219.727 207.236 215.585 202.554 215.045C197.872 214.505 198.592 217.746 198.592 217.746L199.131 243.393H191.154L191.692 217.746C191.692 217.746 192.413 214.505 187.731 215.045C183.048 215.585 149.71 219.727 149.71 219.727C149.71 219.727 147.099 220.358 148.99 216.666C159.236 196.662 129.188 185.672 109.82 169.842C109.82 169.842 107.389 168.131 110.36 166.825C113.331 165.519 117.473 163.539 117.473 163.539C117.473 163.539 120.49 162.953 118.959 158.181C117.428 153.409 111.756 134.05 111.756 134.05C111.756 134.05 110.788 131.055 113.714 132.09C116.641 133.126 134.695 137.043 134.695 137.043C134.695 137.043 138.342 138.259 139.647 134.567C140.953 130.876 142.754 125.112 142.754 125.112C142.754 125.112 143.204 122.861 144.915 125.112C146.626 127.364 160.959 141.255 160.959 141.255C160.959 141.255 163.211 143.866 165.912 142.335C168.613 140.805 167.532 136.572 167.352 135.492C167.172 134.411 161.44 98.9092 161.44 98.9092C161.44 98.9092 160.945 95.7123 163.557 97.5133C166.168 99.3143 174.227 103.321 174.227 103.321C174.227 103.321 176.928 105.212 178.594 102.646C180.26 100.08 193.454 75.7681 193.454 75.7681C193.454 75.7681 194.377 74.001 195.142 74.001C195.651 73.9668 196.204 74.7841 196.486 75.2405L230.651 124.802L248.847 152.566H235.998C234.808 152.566 233.843 153.531 233.843 154.721V201.346L210.024 201.337L209.765 163.881C209.761 162.699 208.8 161.743 207.619 161.743V161.735H183.077C181.887 161.735 180.922 162.7 180.922 163.89V200.956H162.707V154.836C162.707 153.646 161.742 152.682 160.552 152.682H144.507C143.317 152.682 142.352 153.646 142.352 154.836C142.352 156.027 143.317 156.991 144.507 156.991H158.397V203.111C158.397 204.301 159.362 205.266 160.552 205.266H183.077C184.267 205.266 185.232 204.301 185.232 203.111V166.045H205.487L205.746 203.492C205.751 204.673 206.71 205.63 207.893 205.63L235.807 205.64C235.87 205.645 235.934 205.648 235.998 205.648C236.174 205.648 236.345 205.627 236.508 205.587ZM238.714 129.25L249.533 112.86L291.393 169.365H276.621V203.493H238.153V156.876H252.834V156.874C253.238 156.874 253.648 156.761 254.012 156.522C255.007 155.872 255.286 154.537 254.635 153.543L238.714 129.25ZM211.131 134.099C212.321 134.099 213.286 135.064 213.286 136.254C213.286 137.444 212.321 138.409 211.131 138.409H180.73V151.547H220.833V137.279L196.527 100.589L187.129 116.18C186.516 117.198 185.193 117.526 184.175 116.913C183.157 116.299 182.829 114.976 183.442 113.958L194.596 95.4529L194.598 95.4537C194.757 95.1883 194.977 94.9533 195.253 94.771C196.243 94.1156 197.577 94.3869 198.233 95.3772L224.702 135.333C224.978 135.695 225.143 136.148 225.143 136.638V153.702C225.143 154.892 224.178 155.857 222.988 155.857H178.574C177.384 155.857 176.42 154.892 176.42 153.702V136.254C176.42 135.064 177.384 134.099 178.574 134.099H211.131ZM234.792 123.267V95.2277H221.065V102.322L234.792 123.267Z" clip-rule="evenodd" fill-rule="evenodd"></path>
<path fill="#727271" d="M100 296.697H129.605V293.083H100V296.697ZM270.671 296.697H300.276V293.083H270.671V296.697Z" clip-rule="evenodd" fill-rule="evenodd"></path>
<path fill="#727271" d="M100.296 324.922H102.169V320.909H103.059C103.309 320.972 103.684 321.393 104.183 322.315L105.667 324.922H107.821L106.104 321.924C105.557 320.987 105.136 320.425 104.824 320.254V320.222C106.01 319.848 106.838 318.942 106.838 317.568C106.838 316.522 106.401 315.569 105.308 315.054C104.761 314.789 104.074 314.633 103.106 314.633H100.296V324.922ZM102.169 319.379V316.163H103.028C103.59 316.163 103.934 316.288 104.183 316.459C104.636 316.725 104.87 317.209 104.87 317.755C104.87 318.396 104.589 318.864 104.152 319.114C103.84 319.286 103.496 319.379 103.012 319.379H102.169ZM111.072 324.922H116.771V323.329H112.946V320.503H116.241V318.911H112.946V316.225H116.241L116.756 314.633H111.072V324.922ZM119.367 324.922H121.319L122.287 322.346H125.956L126.955 324.922H128.985L124.847 314.586H123.348L119.367 324.922ZM122.833 320.816L123.583 318.786C123.864 317.99 124.02 317.537 124.114 317.178H124.145C124.239 317.521 124.379 317.99 124.66 318.77L125.378 320.816H122.833ZM131.94 324.922H137.467V323.329H133.813V314.633H131.94V324.922ZM142.545 324.922H144.419V316.225H147.167L147.682 314.633H139.547V316.225H142.545V324.922ZM152.9 324.922H154.79V320.863L158.303 314.633H156.273L153.884 319.176H153.853L151.448 314.633H149.387L152.9 320.847V324.922ZM164.63 324.922H166.503V314.633H164.63V324.922ZM179.779 324.922V314.633H177.889V320.129C177.889 320.691 177.905 321.315 177.921 321.862H177.889C177.577 321.378 177.202 320.878 176.75 320.269L172.44 314.633H170.582V324.922H172.456V319.083C172.456 318.489 172.456 317.896 172.425 317.49H172.456C172.799 317.958 173.158 318.474 173.611 319.051L178.077 324.922H179.779ZM191.368 322.783C190.634 323.205 189.853 323.501 188.838 323.501C186.73 323.501 185.419 322.002 185.419 319.848C185.419 317.833 186.621 316.116 188.9 316.116C189.9 316.116 190.759 316.366 191.555 316.787V315.039C190.915 314.758 189.978 314.539 188.854 314.539C185.544 314.539 183.42 316.912 183.42 319.894C183.42 322.908 185.247 325.078 188.619 325.078C189.65 325.078 190.743 324.891 191.883 324.266L191.368 322.783ZM196.024 325.063C196.602 325.063 197.07 324.594 197.07 323.985C197.07 323.376 196.602 322.924 196.024 322.924C195.462 322.924 194.993 323.376 194.993 323.985C194.993 324.594 195.462 325.063 196.024 325.063ZM204.287 324.922H207.582C209.97 324.922 211.188 323.47 211.188 321.877C211.188 320.675 210.454 319.692 209.252 319.395V319.364C210.064 318.958 210.501 318.13 210.501 317.24C210.501 315.897 209.502 314.633 207.3 314.633H204.287V324.922ZM206.161 323.376V320.472H207.566C208.612 320.472 209.283 321.003 209.283 321.877C209.283 322.924 208.612 323.376 207.363 323.376H206.161ZM206.161 318.926V316.178H207.035C208.159 316.178 208.643 316.787 208.643 317.552C208.643 318.349 208.097 318.926 207.051 318.926H206.161ZM214.72 324.922H216.594V320.909H217.484C217.734 320.972 218.109 321.393 218.608 322.315L220.092 324.922H222.246L220.529 321.924C219.982 320.987 219.561 320.425 219.248 320.254V320.222C220.435 319.848 221.263 318.942 221.263 317.568C221.263 316.522 220.825 315.569 219.733 315.054C219.186 314.789 218.499 314.633 217.531 314.633H214.72V324.922ZM216.594 319.379V316.163H217.453C218.015 316.163 218.358 316.288 218.608 316.459C219.061 316.725 219.295 317.209 219.295 317.755C219.295 318.396 219.014 318.864 218.577 319.114C218.265 319.286 217.921 319.379 217.437 319.379H216.594ZM230.244 325.078C233.242 325.078 235.428 322.97 235.428 319.816C235.428 316.709 233.289 314.539 230.244 314.539C227.199 314.539 225.06 316.694 225.06 319.816C225.06 322.97 227.215 325.078 230.244 325.078ZM230.244 323.501C228.339 323.501 227.059 322.143 227.059 319.816C227.059 317.474 228.339 316.116 230.244 316.116C232.196 316.116 233.429 317.537 233.429 319.816C233.429 322.143 232.133 323.501 230.244 323.501ZM239.069 324.922H240.943V320.41H240.99L244.628 324.922H246.923L242.551 319.629L246.689 314.633H244.519L240.99 319.02H240.943V314.633H239.069V324.922ZM250.002 324.922H255.701V323.329H251.876V320.503H255.171V318.911H251.876V316.225H255.171L255.686 314.633H250.002V324.922ZM259.421 324.922H261.295V320.909H262.185C262.435 320.972 262.809 321.393 263.309 322.315L264.792 324.922H266.947L265.229 321.924C264.683 320.987 264.261 320.425 263.949 320.254V320.222C265.136 319.848 265.963 318.942 265.963 317.568C265.963 316.522 265.526 315.569 264.433 315.054C263.887 314.789 263.2 314.633 262.232 314.633H259.421V324.922ZM261.295 319.379V316.163H262.154C262.716 316.163 263.059 316.288 263.309 316.459C263.762 316.725 263.996 317.209 263.996 317.755C263.996 318.396 263.715 318.864 263.278 319.114C262.965 319.286 262.622 319.379 262.138 319.379H261.295ZM269.074 324.922H271.026L271.994 322.346H275.663L276.662 324.922H278.692L274.554 314.586H273.055L269.074 324.922ZM272.54 320.816L273.29 318.786C273.571 317.99 273.727 317.537 273.82 317.178H273.852C273.945 317.521 274.086 317.99 274.367 318.77L275.085 320.816H272.54ZM290.328 319.926H288.438V323.189C288.033 323.376 287.408 323.501 286.721 323.501C284.504 323.501 283.208 322.049 283.208 319.832C283.208 317.646 284.52 316.116 287.002 316.116C288.111 316.116 289.032 316.397 289.844 316.803V315.054C289.063 314.773 288.064 314.539 286.862 314.539C283.442 314.539 281.209 316.834 281.209 319.957C281.209 322.908 283.208 325.078 286.581 325.078C288.017 325.078 289.391 324.719 290.328 324.251V319.926ZM294.282 324.922H299.981V323.329H296.155V320.503H299.45V318.911H296.155V316.225H299.45L299.965 314.633H294.282V324.922Z"></path>
<path fill="#3E5744" d="M120.481 268.459C118.618 269.529 116.636 270.283 114.06 270.283C108.709 270.283 105.379 266.477 105.379 261.007C105.379 255.894 108.431 251.534 114.218 251.534C116.755 251.534 118.935 252.168 120.957 253.239V248.799C119.332 248.086 116.953 247.531 114.1 247.531C105.696 247.531 100.306 253.556 100.306 261.126C100.306 268.776 104.943 274.286 113.505 274.286C116.121 274.286 118.896 273.81 121.789 272.225L120.481 268.459ZM124.39 273.89H129.345L131.802 267.349H141.117L143.654 273.89H148.806L138.303 247.65H134.497L124.39 273.89ZM133.189 263.465L135.092 258.312C135.805 256.291 136.202 255.141 136.44 254.229H136.519C136.757 255.101 137.113 256.291 137.827 258.272L139.65 263.465H133.189ZM176.616 273.89V247.769H171.82V261.721C171.82 263.148 171.86 264.733 171.9 266.121H171.82C171.028 264.892 170.076 263.623 168.927 262.078L157.987 247.769H153.27V273.89H158.027V259.065C158.027 257.559 158.027 256.053 157.947 255.022H158.027C158.899 256.211 159.81 257.519 160.96 258.986L172.296 273.89H176.616ZM181.08 273.89H186.035L188.492 267.349H197.807L200.344 273.89H205.497L194.993 247.65H191.188L181.08 273.89ZM189.88 263.465L191.782 258.312C192.496 256.291 192.892 255.141 193.13 254.229H193.209C193.447 255.101 193.804 256.291 194.517 258.272L196.34 263.465H189.88ZM209.96 273.89H217.65C226.727 273.89 232.355 268.578 232.355 260.651C232.355 252.921 227.321 247.769 218.086 247.769H209.96V273.89ZM214.717 269.846V251.812H217.65C224.032 251.812 227.242 255.26 227.242 260.73C227.242 265.645 224.626 269.846 217.729 269.846H214.717ZM238.523 273.89H243.28V247.769H238.523V273.89ZM247.743 273.89H252.698L255.156 267.349H264.47L267.007 273.89H272.16L261.656 247.65H257.851L247.743 273.89ZM256.543 263.465L258.446 258.312C259.159 256.291 259.555 255.141 259.793 254.229H259.872C260.11 255.101 260.467 256.291 261.18 258.272L263.004 263.465H256.543ZM299.97 273.89V247.769H295.174V261.721C295.174 263.148 295.214 264.733 295.253 266.121H295.174C294.381 264.892 293.43 263.623 292.28 262.078L281.341 247.769H276.624V273.89H281.38V259.065C281.38 257.559 281.38 256.053 281.301 255.022H281.38C282.252 256.211 283.164 257.519 284.313 258.986L295.649 273.89H299.97ZM137.7 308.504H145.39C154.467 308.504 160.095 303.193 160.095 295.265C160.095 287.536 155.061 282.383 145.826 282.383H137.7V308.504ZM142.457 304.461V286.426H145.39C151.772 286.426 154.982 289.874 154.982 295.344C154.982 300.259 152.366 304.461 145.469 304.461H142.457ZM166.263 308.504H171.02V298.317H173.279C173.913 298.476 174.865 299.546 176.133 301.885L179.899 308.504H185.369L181.008 300.894C179.621 298.515 178.551 297.088 177.758 296.652V296.573C180.771 295.622 182.871 293.323 182.871 289.835C182.871 287.179 181.762 284.761 178.987 283.453C177.6 282.779 175.856 282.383 173.398 282.383H166.263V308.504ZM171.02 294.433V286.267H173.2C174.627 286.267 175.499 286.585 176.133 287.021C177.282 287.694 177.877 288.923 177.877 290.311C177.877 291.936 177.164 293.125 176.054 293.759C175.261 294.195 174.389 294.433 173.16 294.433H171.02ZM190.585 308.504H205.053V304.461H195.342V297.287H203.705V293.244H195.342V286.426H203.705L205.013 282.383H190.585V308.504ZM208.605 308.504H213.56L216.017 301.964H225.332L227.869 308.504H233.022L222.518 282.264H218.712L208.605 308.504ZM217.405 298.079L219.307 292.927C220.021 290.905 220.417 289.756 220.655 288.844H220.734C220.972 289.716 221.329 290.905 222.042 292.887L223.865 298.079H217.405ZM237.485 308.504H242.242V293.64C242.242 292.728 242.242 291.381 242.202 290.35H242.281C242.797 291.341 243.51 292.253 244.065 293.045L249.773 301.25H251.953L257.106 293.244C257.581 292.53 258.533 291.064 258.889 290.311H258.969C258.889 291.341 258.889 292.689 258.889 293.759V308.504H263.685V282.383H259.325L253.063 292.094C252.151 293.481 251.477 294.631 250.922 295.622H250.843C250.248 294.591 249.575 293.6 248.663 292.253L241.806 282.383H237.485V308.504Z"></path>
</svg>
